<?xml version="1.0" standalone="no"?>
<!DOCTYPE svg PUBLIC "-//W3C//DTD SVG 20010904//EN"
 "http://www.w3.org/TR/2001/REC-SVG-20010904/DTD/svg10.dtd">
<svg version="1.0" xmlns="http://www.w3.org/2000/svg"
 width="700.000000pt" height="217.000000pt" viewBox="0 0 700.000000 217.000000"
 preserveAspectRatio="xMidYMid meet">
<metadata>
Created by potrace 1.15, written by Peter Selinger 2001-2017
</metadata>
<g transform="translate(0.000000,217.000000) scale(0.100000,-0.100000)"
fill="#f0582b" stroke="none">
<path d="M1197 2096 c-151 -56 -256 -232 -283 -473 l-7 -63 -213 0 c-117 0
-224 -4 -239 -10 -14 -5 -30 -22 -36 -37 -12 -30 -3 -199 31 -648 11 -137 24
-320 30 -405 6 -85 16 -174 22 -198 15 -58 59 -117 107 -142 39 -19 57 -20
692 -20 643 0 653 0 696 21 50 24 86 67 107 127 14 39 39 306 66 712 20 301
30 435 36 471 6 44 -16 103 -44 118 -13 7 -102 11 -241 11 l-221 0 0 28 c0 15
-9 70 -20 122 -36 174 -128 318 -239 372 -57 28 -186 35 -244 14z m166 -107
c99 -27 186 -170 212 -349 3 -25 9 -53 11 -62 5 -17 -13 -18 -275 -18 l-281 0
0 29 c0 60 31 188 59 246 36 72 94 131 147 150 48 17 77 18 127 4z m126 -721
c53 -26 67 -38 69 -59 6 -48 -19 -53 -88 -17 -106 55 -222 50 -295 -13 -69
-61 -71 -133 -6 -192 48 -43 60 -50 153 -83 108 -39 165 -70 219 -121 61 -57
83 -112 77 -192 -9 -131 -120 -211 -294 -211 -154 0 -347 99 -309 159 11 19
39 12 117 -28 132 -68 254 -76 343 -21 46 28 79 98 70 148 -12 64 -92 132
-211 177 -132 51 -168 69 -215 112 -54 48 -70 84 -70 148 0 67 26 121 83 169
58 50 115 67 212 62 64 -4 90 -10 145 -38z"/>
<path d="M2574 1311 c-100 -26 -167 -97 -185 -196 -14 -75 -1 -131 43 -181 44
-50 88 -76 203 -119 122 -45 173 -73 213 -119 68 -78 43 -188 -53 -236 -95
-47 -222 -30 -343 47 -63 40 -98 43 -113 9 -16 -34 -1 -55 73 -99 96 -58 181
-80 286 -75 102 4 163 29 219 91 47 52 63 95 63 164 0 141 -110 248 -312 308
-77 22 -155 70 -174 107 -19 38 -15 105 11 144 25 38 89 64 160 63 55 0 99
-11 192 -50 28 -12 34 -11 52 6 44 39 15 77 -87 116 -62 23 -195 34 -248 20z"/>
<path d="M3096 1305 c-14 -15 -16 -65 -16 -479 0 -346 3 -465 12 -474 7 -7 25
-12 40 -12 41 0 48 28 48 201 0 164 8 196 67 251 76 73 205 62 260 -21 22 -32
23 -43 23 -220 0 -201 2 -211 51 -211 48 0 51 13 47 227 -3 224 -11 251 -85
312 -82 68 -198 76 -305 23 l-58 -29 0 196 c0 208 -7 243 -47 249 -11 2 -28
-4 -37 -13z"/>
<path d="M3952 916 c-89 -29 -159 -96 -192 -184 -52 -137 18 -303 155 -368 61
-29 176 -33 247 -8 92 31 168 121 186 222 24 132 -48 271 -168 325 -57 26
-169 32 -228 13z m203 -110 c91 -49 129 -167 83 -256 -59 -115 -198 -153 -304
-84 -67 43 -89 86 -89 170 0 66 3 76 31 111 73 90 180 113 279 59z"/>
<path d="M4477 912 c-15 -17 -17 -62 -17 -438 0 -364 2 -423 16 -442 18 -26
46 -28 68 -6 13 13 16 46 16 205 l0 190 33 -25 c56 -43 100 -56 189 -56 97 0
152 21 211 78 63 61 91 124 91 212 1 64 -3 84 -29 134 -48 95 -136 155 -241
164 -82 6 -156 -13 -210 -54 l-44 -34 0 29 c0 54 -50 79 -83 43z m357 -83
c114 -28 185 -160 145 -266 -15 -40 -67 -92 -114 -114 -141 -66 -310 54 -292
207 9 80 78 155 161 174 45 11 52 11 100 -1z"/>
<path d="M5387 918 c-53 -14 -130 -87 -158 -150 -33 -76 -33 -212 0 -281 49
-99 122 -146 240 -154 122 -9 261 37 261 86 0 10 -9 26 -21 36 -18 17 -24 17
-52 6 -18 -7 -60 -20 -95 -29 -53 -13 -70 -14 -110 -3 -69 18 -112 49 -133 95
-36 80 -45 76 190 76 249 0 247 -1 237 92 -12 115 -72 194 -170 223 -56 17
-132 18 -189 3z m185 -104 c28 -15 78 -79 78 -101 0 -10 -40 -13 -171 -13
l-170 0 7 23 c31 99 155 143 256 91z"/>
<path d="M6049 914 c-57 -17 -124 -81 -152 -144 -29 -65 -30 -217 -1 -280 30
-64 67 -104 121 -131 41 -20 64 -23 153 -24 93 0 111 3 163 27 50 24 57 30 57
55 0 16 -5 34 -12 41 -14 14 -54 16 -62 3 -12 -18 -134 -44 -178 -37 -87 13
-167 87 -168 154 l0 22 208 0 c196 0 210 1 227 20 39 43 -11 202 -81 255 -69
53 -180 69 -275 39z m196 -103 c17 -9 40 -37 53 -61 l22 -45 -166 -3 c-92 -1
-170 0 -173 3 -9 10 34 78 62 99 51 38 141 41 202 7z"/>
</g>
</svg>
